<?xml version="1.0" encoding="UTF-8" standalone="no"?><!DOCTYPE svg PUBLIC "-//W3C//DTD SVG 1.1//EN" "http://www.w3.org/Graphics/SVG/1.1/DTD/svg11.dtd"><svg width="100%" height="100%" viewBox="0 0 1024 1024" version="1.1" xmlns="http://www.w3.org/2000/svg" xmlns:xlink="http://www.w3.org/1999/xlink" xml:space="preserve" xmlns:serif="http://www.serif.com/" style="fill-rule:evenodd;clip-rule:evenodd;stroke-linejoin:round;stroke-miterlimit:2;"><g><path d="M553.83,1024c-0,-0 -73.427,-60.801 -13.415,-122.97c34.99,-36.249 136.011,-96.14 160.978,-143.092c21.763,-40.931 18.124,-102.699 -11.179,-138.62c-34.655,-42.48 -187.435,-65.956 -196.751,-116.262c-5.97,-32.231 122.261,-53.324 167.685,-78.253c96.234,-52.812 81.889,-133.487 69.311,-122.97c-18.028,15.076 -31.771,61.487 -102.262,79.123c-173.447,43.393 -263.649,64.007 -264.411,122.1c-0.798,60.709 74.962,86.772 111.79,107.319c37.85,21.115 75.367,37.007 69.31,60.367c-7.825,30.183 -66.667,58.793 -109.554,73.782c-177.003,61.858 -199.732,87.57 -248.175,134.148c-36.381,34.982 -54.679,111.082 -42.481,145.328l409.154,-0Z" style="fill-opacity:0.2;"/></g><g><path d="M723.032,6.215c1.245,-3.714 4.723,-6.215 8.637,-6.215c3.914,0 7.392,2.501 8.637,6.215l32.257,96.243l101.5,0.935c3.916,0.037 7.369,2.571 8.58,6.297c1.208,3.722 -0.095,7.802 -3.242,10.134l-81.563,60.417l30.473,96.822c1.174,3.737 -0.169,7.802 -3.335,10.103c-3.166,2.304 -7.451,2.324 -10.64,0.051l-82.667,-58.9l-82.667,58.9c-3.189,2.273 -7.473,2.253 -10.64,-0.051c-3.166,-2.301 -4.509,-6.366 -3.335,-10.103l30.473,-96.822l-81.562,-60.417c-3.147,-2.332 -4.451,-6.412 -3.243,-10.134c1.211,-3.726 4.664,-6.26 8.581,-6.297l101.499,-0.935l32.257,-96.243Z" style="fill-opacity:0.2;"/></g></svg>