<?xml version="1.0" encoding="UTF-8" standalone="no"?><!DOCTYPE svg PUBLIC "-//W3C//DTD SVG 1.1//EN" "http://www.w3.org/Graphics/SVG/1.1/DTD/svg11.dtd"><svg width="100%" height="100%" viewBox="0 0 123 109" version="1.1" xmlns="http://www.w3.org/2000/svg" xmlns:xlink="http://www.w3.org/1999/xlink" xml:space="preserve" xmlns:serif="http://www.serif.com/" style="fill-rule:evenodd;clip-rule:evenodd;stroke-linejoin:round;stroke-miterlimit:2;"><path d="M51.46,93.86c12.9,12.44 31.14,16.2 49.38,8.43l15.31,6l-5.07,-12.06c17,-13.63 14,-32.35 1.44,-45.11c-0.834,4.867 -2.48,9.559 -4.87,13.88c-3.517,6.26 -8.311,11.711 -14.07,16c-5.911,4.469 -12.567,7.855 -19.66,10c-7.281,2.172 -14.866,3.151 -22.46,2.9l-0,-0.04Zm-19.88,-39.79c-1.637,-0.093 -2.934,-1.465 -2.934,-3.105c0,-1.64 1.297,-3.012 2.934,-3.105l29.93,0c1.637,0.093 2.934,1.465 2.934,3.105c-0,1.64 -1.297,3.012 -2.934,3.105l-29.93,0Zm-0,-17.22c-1.637,-0.093 -2.934,-1.465 -2.934,-3.105c0,-1.64 1.297,-3.012 2.934,-3.105l42.76,0c1.637,0.093 2.934,1.465 2.934,3.105c-0,1.64 -1.297,3.012 -2.934,3.105l-42.76,0Zm22.7,-36.85c14.53,0.47 27.52,5.62 36.81,13.59c9.49,8.13 15.17,19.2 14.82,31.27c-0.37,12.14 -6.72,22.85 -16.69,30.42c-9.78,7.42 -23.07,11.79 -37.56,11.37c-3.922,-0.111 -7.825,-0.583 -11.66,-1.41c-3.369,-0.717 -6.671,-1.721 -9.87,-3l-23.44,9.2l7.83,-18.63c-4.337,-3.712 -7.91,-8.233 -10.52,-13.31c-2.797,-5.474 -4.172,-11.565 -4,-17.71c0.38,-12.09 6.73,-22.79 16.7,-30.39c9.78,-7.4 23.08,-11.8 37.56,-11.4l0.02,0Zm-0.15,6.18l-0.05,0c-13.08,-0.35 -24.94,3.54 -33.64,10.14c-8.52,6.46 -13.94,15.52 -14.24,25.68c-0.133,5.106 1.019,10.165 3.35,14.71c2.577,4.97 6.2,9.324 10.62,12.76l1.83,1.46l-3.92,9.37l12.08,-4.75l1.17,0.5c3.197,1.353 6.515,2.401 9.91,3.13c3.483,0.752 7.028,1.183 10.59,1.29c13,0.38 25,-3.51 33.66,-10.12c8.51,-6.46 13.93,-15.51 14.24,-25.63c0.29,-10.11 -4.56,-19.45 -12.66,-26.4c-8.28,-7.13 -19.91,-11.71 -32.92,-12.11l-0.02,-0.03Z" style="fill-opacity:0.2;"/><path d="M54.13,6.18l0.02,0.03c13.01,0.4 24.64,4.98 32.92,12.11c8.1,6.95 12.95,16.29 12.66,26.4c-0.31,10.12 -5.73,19.17 -14.24,25.63c-8.66,6.61 -20.66,10.5 -33.66,10.12c-3.562,-0.107 -7.107,-0.538 -10.59,-1.29c-3.395,-0.729 -6.713,-1.777 -9.91,-3.13l-1.17,-0.5l-12.08,4.75l3.92,-9.37l-1.83,-1.46c-4.42,-3.436 -8.043,-7.79 -10.62,-12.76c-2.331,-4.545 -3.483,-9.604 -3.35,-14.71c0.3,-10.16 5.72,-19.22 14.24,-25.68c8.7,-6.6 20.56,-10.49 33.64,-10.14l0.05,0Zm-22.55,30.67l42.76,0c1.637,-0.093 2.934,-1.465 2.934,-3.105c-0,-1.64 -1.297,-3.012 -2.934,-3.105l-42.76,0c-1.637,0.093 -2.934,1.465 -2.934,3.105c0,1.64 1.297,3.012 2.934,3.105Zm-0,17.22l29.93,0c1.637,-0.093 2.934,-1.465 2.934,-3.105c-0,-1.64 -1.297,-3.012 -2.934,-3.105l-29.93,-0c-1.637,0.093 -2.934,1.465 -2.934,3.105c0,1.64 1.297,3.012 2.934,3.105Z" style="fill-opacity:0.1;"/></svg>