<?xml version="1.0" encoding="UTF-8" standalone="no"?>
<!DOCTYPE svg PUBLIC "-//W3C//DTD SVG 1.1//EN" "http://www.w3.org/Graphics/SVG/1.1/DTD/svg11.dtd">
<svg width="100%" height="100%" viewBox="0 0 834 834" version="1.1" xmlns="http://www.w3.org/2000/svg" xmlns:xlink="http://www.w3.org/1999/xlink" xml:space="preserve" xmlns:serif="http://www.serif.com/" style="fill-rule:evenodd;clip-rule:evenodd;stroke-linejoin:round;stroke-miterlimit:2;">
    <rect id="Artboard1" x="0" y="0" width="833.333" height="833.333" style="fill:none;"/>
    <g id="Artboard11" serif:id="Artboard1"><path d="M328.947,537.72c-0,-8.84 -3.512,-17.319 -9.764,-23.57c-6.251,-6.251 -14.729,-9.763 -23.57,-9.763l-218.53,-0c-18.409,-0 -33.333,-14.924 -33.333,-33.333c0,-31.203 0,-77.571 0,-108.774c0,-18.41 14.924,-33.333 33.333,-33.333c54.883,-0 163.647,-0 218.53,-0c8.841,-0 17.319,-3.512 23.57,-9.764c6.252,-6.251 9.764,-14.729 9.764,-23.57l-0,-218.53c-0,-18.409 14.923,-33.333 33.333,-33.333c31.203,0 77.571,0 108.774,0c18.409,0 33.333,14.924 33.333,33.333c-0,54.883 -0,163.647 -0,218.53c-0,8.841 3.512,17.319 9.763,23.57c6.251,6.252 14.73,9.764 23.57,9.764l218.53,-0c18.409,-0 33.333,14.923 33.333,33.333c0,31.203 0,77.571 0,108.774c0,18.409 -14.924,33.333 -33.333,33.333c-54.883,-0 -163.647,-0 -218.53,-0c-8.84,-0 -17.319,3.512 -23.57,9.763c-6.251,6.251 -9.763,14.73 -9.763,23.57l-0,218.53c-0,18.409 -14.924,33.333 -33.333,33.333c-31.203,0 -77.571,0 -108.774,0c-18.41,0 -33.333,-14.924 -33.333,-33.333c-0,-54.883 -0,-163.647 -0,-218.53Z"/>
    </g>
</svg>