<?xml version="1.0" encoding="UTF-8" standalone="no"?>
<!DOCTYPE svg PUBLIC "-//W3C//DTD SVG 1.1//EN" "http://www.w3.org/Graphics/SVG/1.1/DTD/svg11.dtd">
<svg width="100%" height="100%" viewBox="0 0 1024 1024" version="1.1" xmlns="http://www.w3.org/2000/svg" xmlns:xlink="http://www.w3.org/1999/xlink" xml:space="preserve" xmlns:serif="http://www.serif.com/" style="fill-rule:evenodd;clip-rule:evenodd;stroke-linecap:round;stroke-linejoin:round;stroke-miterlimit:1.5;">
    <g transform="matrix(2.23581,0,0,2.23581,-651.272,-319.721)">
        <path d="M539,601C539,601 506.159,573.806 533,546C548.65,529.787 593.833,503 605,482C614.734,463.693 613.106,436.066 600,420C584.5,401 516.167,390.5 512,368C509.33,353.584 566.683,344.15 587,333C630.042,309.379 623.626,273.296 618,278C609.937,284.743 603.79,305.501 572.262,313.389C494.685,332.797 454.341,342.017 454,368C453.643,395.153 487.528,406.81 504,416C520.929,425.444 537.709,432.552 535,443C531.5,456.5 505.182,469.296 486,476C406.833,503.667 396.667,515.167 375,536C358.728,551.646 350.544,585.683 356,601L539,601Z" style="fill:white;stroke:black;stroke-width:0.27px;"/>
    </g>
    <g transform="matrix(2.8096,0,0,2.8096,-1065.07,-449.536)">
        <path d="M636.426,162.212C636.869,160.89 638.107,160 639.5,160C640.893,160 642.131,160.89 642.574,162.212L654.055,196.467L690.181,196.8C691.575,196.813 692.804,197.715 693.235,199.041C693.665,200.366 693.201,201.818 692.081,202.648L663.051,224.152L673.897,258.613C674.315,259.943 673.837,261.39 672.71,262.209C671.583,263.029 670.058,263.036 668.923,262.227L639.5,241.263L610.077,262.227C608.942,263.036 607.417,263.029 606.29,262.209C605.163,261.39 604.685,259.943 605.103,258.613L615.949,224.152L586.919,202.648C585.799,201.818 585.335,200.366 585.765,199.041C586.196,197.715 587.425,196.813 588.819,196.8L624.945,196.467L636.426,162.212Z" style="fill:rgb(50,158,213);"/>
    </g>
</svg>
